# Blender 4.2.1 LTS
# www.blender.org
mtllib try.mtl
o Room
v 67.000000 0.000000 -135.000000
v 69.000000 0.000000 -372.000000
v 570.000000 0.000000 -372.000000
v 575.000000 0.000000 -278.000000
v 695.000000 0.000000 -277.000000
v 693.000000 0.000000 -168.000000
v 573.000000 0.000000 -167.000000
v 572.000000 0.000000 -39.000000
v 167.000000 0.000000 -40.000000
v 165.000000 0.000000 -130.000000
v 67.000000 200.000000 -135.000000
v 69.000000 200.000000 -372.000000
v 570.000000 200.000000 -372.000000
v 575.000000 200.000000 -278.000000
v 695.000000 200.000000 -277.000000
v 693.000000 200.000000 -168.000000
v 573.000000 200.000000 -167.000000
v 572.000000 200.000000 -39.000000
v 167.000000 200.000000 -40.000000
v 165.000000 200.000000 -130.000000
vn -0.0000 1.0000 -0.0000
vn -0.0000 -1.0000 -0.0000
vn -0.0083 -0.0000 -1.0000
vn -0.9986 -0.0000 0.0531
vn 0.0510 -0.0000 -0.9987
vn -1.0000 -0.0000 -0.0078
vn -0.0083 -0.0000 1.0000
vn 1.0000 -0.0000 0.0084
vn 0.0025 -0.0000 -1.0000
vn -0.9998 -0.0000 -0.0183
vn -0.0000 -0.0000 1.0000
vn 0.9998 -0.0000 -0.0222
s 0
f 10//1 7//1 4//1
f 14//2 17//2 20//2
f 7//3 16//3 6//3
f 4//4 13//4 3//4
f 1//5 20//5 10//5
f 8//6 17//6 7//6
f 5//7 14//7 4//7
f 2//8 11//8 1//8
f 9//9 18//9 8//9
f 6//10 15//10 5//10
f 3//11 12//11 2//11
f 10//12 19//12 9//12
f 2//1 1//1 10//1
f 10//1 9//1 8//1
f 7//1 6//1 5//1
f 10//1 8//1 7//1
f 3//1 2//1 10//1
f 7//1 5//1 4//1
f 4//1 3//1 10//1
f 20//2 11//2 12//2
f 12//2 13//2 14//2
f 14//2 15//2 16//2
f 17//2 18//2 19//2
f 14//2 16//2 17//2
f 20//2 12//2 14//2
f 17//2 19//2 20//2
f 7//3 17//3 16//3
f 4//4 14//4 13//4
f 1//5 11//5 20//5
f 8//6 18//6 17//6
f 5//7 15//7 14//7
f 2//8 12//8 11//8
f 9//9 19//9 18//9
f 6//10 16//10 15//10
f 3//11 13//11 12//11
f 10//12 20//12 19//12
